<?xml version="1.0" encoding="UTF-8" standalone="no"?>
<!DOCTYPE svg PUBLIC "-//W3C//DTD SVG 1.1//EN"
 "http://www.w3.org/Graphics/SVG/1.1/DTD/svg11.dtd">
<!-- Generated by graphviz version 2.26.3 (20100126.1600)
 -->
<!-- Title: models_diagram Pages: 1 -->
<svg width="722pt" height="692pt"
 viewBox="0.00 0.00 722.00 692.00" xmlns="http://www.w3.org/2000/svg" xmlns:xlink="http://www.w3.org/1999/xlink">
<g id="graph1" class="graph" transform="scale(1 1) rotate(0) translate(4 688)">
<title>models_diagram</title>
<polygon fill="white" stroke="white" points="-4,5 -4,-688 719,-688 719,5 -4,5"/>
<!-- _diagram_info -->
<g id="node1" class="node"><title>_diagram_info</title>
<text text-anchor="start" x="8" y="-570.8" font-family="Times Roman,serif" font-size="13.00">Models diagram</text>
<text text-anchor="start" x="8" y="-553.8" font-family="Times Roman,serif" font-size="13.00">Date: Jun 12 2013 &#45; 20:43</text>
<text text-anchor="start" x="8" y="-536.8" font-family="Times Roman,serif" font-size="13.00">Migration version: 20130610112748</text>
<text text-anchor="start" x="8" y="-519.8" font-family="Times Roman,serif" font-size="13.00">Generated by RailRoady 1.1.0</text>
<text text-anchor="start" x="8" y="-502.8" font-family="Times Roman,serif" font-size="13.00">http://railroady.prestonlee.com</text>
</g>
<!-- LineItem -->
<g id="node2" class="node"><title>LineItem</title>
<polyline fill="none" stroke="black" points="379.5,-1 520.5,-1 "/>
<path fill="none" stroke="black" d="M520.5,-1C526.5,-1 532.5,-7 532.5,-13"/>
<polyline fill="none" stroke="black" points="532.5,-13 532.5,-131 "/>
<path fill="none" stroke="black" d="M532.5,-131C532.5,-137 526.5,-143 520.5,-143"/>
<polyline fill="none" stroke="black" points="520.5,-143 379.5,-143 "/>
<path fill="none" stroke="black" d="M379.5,-143C373.5,-143 367.5,-137 367.5,-131"/>
<polyline fill="none" stroke="black" points="367.5,-131 367.5,-13 "/>
<path fill="none" stroke="black" d="M367.5,-13C367.5,-7 373.5,-1 379.5,-1"/>
<text text-anchor="middle" x="450" y="-126.4" font-family="Times Roman,serif" font-size="14.00">LineItem</text>
<polyline fill="none" stroke="black" points="367.5,-117 532.5,-117 "/>
<text text-anchor="start" x="375.5" y="-100.4" font-family="Times Roman,serif" font-size="14.00">id :integer</text>
<text text-anchor="start" x="375.5" y="-82.4" font-family="Times Roman,serif" font-size="14.00">product_id :integer</text>
<text text-anchor="start" x="375.5" y="-64.4" font-family="Times Roman,serif" font-size="14.00">order_id :integer</text>
<text text-anchor="start" x="375.5" y="-46.4" font-family="Times Roman,serif" font-size="14.00">quantity :integer</text>
<text text-anchor="start" x="375.5" y="-28.4" font-family="Times Roman,serif" font-size="14.00">created_at :datetime</text>
<text text-anchor="start" x="375.5" y="-10.4" font-family="Times Roman,serif" font-size="14.00">updated_at :datetime</text>
</g>
<!-- User -->
<g id="node3" class="node"><title>User</title>
<polyline fill="none" stroke="black" points="280,-397 510,-397 "/>
<path fill="none" stroke="black" d="M510,-397C516,-397 522,-403 522,-409"/>
<polyline fill="none" stroke="black" points="522,-409 522,-671 "/>
<path fill="none" stroke="black" d="M522,-671C522,-677 516,-683 510,-683"/>
<polyline fill="none" stroke="black" points="510,-683 280,-683 "/>
<path fill="none" stroke="black" d="M280,-683C274,-683 268,-677 268,-671"/>
<polyline fill="none" stroke="black" points="268,-671 268,-409 "/>
<path fill="none" stroke="black" d="M268,-409C268,-403 274,-397 280,-397"/>
<text text-anchor="middle" x="395" y="-666.4" font-family="Times Roman,serif" font-size="14.00">User</text>
<polyline fill="none" stroke="black" points="268,-657 522,-657 "/>
<text text-anchor="start" x="276" y="-640.4" font-family="Times Roman,serif" font-size="14.00">id :integer</text>
<text text-anchor="start" x="276" y="-622.4" font-family="Times Roman,serif" font-size="14.00">email :string</text>
<text text-anchor="start" x="276" y="-604.4" font-family="Times Roman,serif" font-size="14.00">encrypted_password :string</text>
<text text-anchor="start" x="276" y="-586.4" font-family="Times Roman,serif" font-size="14.00">reset_password_token :string</text>
<text text-anchor="start" x="276" y="-568.4" font-family="Times Roman,serif" font-size="14.00">reset_password_sent_at :datetime</text>
<text text-anchor="start" x="276" y="-550.4" font-family="Times Roman,serif" font-size="14.00">remember_created_at :datetime</text>
<text text-anchor="start" x="276" y="-532.4" font-family="Times Roman,serif" font-size="14.00">sign_in_count :integer</text>
<text text-anchor="start" x="276" y="-514.4" font-family="Times Roman,serif" font-size="14.00">current_sign_in_at :datetime</text>
<text text-anchor="start" x="276" y="-496.4" font-family="Times Roman,serif" font-size="14.00">last_sign_in_at :datetime</text>
<text text-anchor="start" x="276" y="-478.4" font-family="Times Roman,serif" font-size="14.00">current_sign_in_ip :string</text>
<text text-anchor="start" x="276" y="-460.4" font-family="Times Roman,serif" font-size="14.00">last_sign_in_ip :string</text>
<text text-anchor="start" x="276" y="-442.4" font-family="Times Roman,serif" font-size="14.00">name :string</text>
<text text-anchor="start" x="276" y="-424.4" font-family="Times Roman,serif" font-size="14.00">created_at :datetime</text>
<text text-anchor="start" x="276" y="-406.4" font-family="Times Roman,serif" font-size="14.00">updated_at :datetime</text>
</g>
<!-- User&#45;&gt;LineItem -->
<g id="edge4" class="edge"><title>User&#45;&gt;LineItem</title>
<path fill="none" stroke="#06284c" d="M350.285,-386.629C338.652,-321.285 335.179,-245.24 359,-180 362.569,-170.226 367.455,-160.725 373.124,-151.674"/>
<polygon fill="#06284c" stroke="#06284c" points="350.312,-386.773 347.714,-397.427 351.225,-391.689 352.139,-396.605 352.139,-396.605 352.139,-396.605 351.225,-391.689 356.563,-395.782 350.312,-386.773 350.312,-386.773"/>
<polygon fill="#06284c" stroke="#06284c" points="373.256,-151.476 382.532,-145.628 376.018,-147.308 378.781,-143.141 378.781,-143.141 378.781,-143.141 376.018,-147.308 375.031,-140.654 373.256,-151.476 373.256,-151.476"/>
</g>
<!-- Order -->
<g id="node4" class="node"><title>Order</title>
<polyline fill="none" stroke="black" points="379.5,-199 520.5,-199 "/>
<path fill="none" stroke="black" d="M520.5,-199C526.5,-199 532.5,-205 532.5,-211"/>
<polyline fill="none" stroke="black" points="532.5,-211 532.5,-329 "/>
<path fill="none" stroke="black" d="M532.5,-329C532.5,-335 526.5,-341 520.5,-341"/>
<polyline fill="none" stroke="black" points="520.5,-341 379.5,-341 "/>
<path fill="none" stroke="black" d="M379.5,-341C373.5,-341 367.5,-335 367.5,-329"/>
<polyline fill="none" stroke="black" points="367.5,-329 367.5,-211 "/>
<path fill="none" stroke="black" d="M367.5,-211C367.5,-205 373.5,-199 379.5,-199"/>
<text text-anchor="middle" x="450" y="-324.4" font-family="Times Roman,serif" font-size="14.00">Order</text>
<polyline fill="none" stroke="black" points="367.5,-315 532.5,-315 "/>
<text text-anchor="start" x="375.5" y="-298.4" font-family="Times Roman,serif" font-size="14.00">id :integer</text>
<text text-anchor="start" x="375.5" y="-280.4" font-family="Times Roman,serif" font-size="14.00">user_id :integer</text>
<text text-anchor="start" x="375.5" y="-262.4" font-family="Times Roman,serif" font-size="14.00">total_price :float</text>
<text text-anchor="start" x="375.5" y="-244.4" font-family="Times Roman,serif" font-size="14.00">note :string</text>
<text text-anchor="start" x="375.5" y="-226.4" font-family="Times Roman,serif" font-size="14.00">created_at :datetime</text>
<text text-anchor="start" x="375.5" y="-208.4" font-family="Times Roman,serif" font-size="14.00">updated_at :datetime</text>
</g>
<!-- User&#45;&gt;Order -->
<g id="edge2" class="edge"><title>User&#45;&gt;Order</title>
<path fill="none" stroke="#6bcd50" d="M425.847,-388.57C428.475,-375.669 431.061,-362.971 433.509,-350.957"/>
<ellipse fill="none" stroke="#6bcd50" cx="424.989" cy="-392.779" rx="4.00001" ry="4.00001"/>
<polygon fill="#6bcd50" stroke="#6bcd50" points="433.533,-350.835 439.939,-341.935 434.532,-345.936 435.53,-341.037 435.53,-341.037 435.53,-341.037 434.532,-345.936 431.12,-340.138 433.533,-350.835 433.533,-350.835"/>
</g>
<!-- Order&#45;&gt;LineItem -->
<g id="edge6" class="edge"><title>Order&#45;&gt;LineItem</title>
<path fill="none" stroke="#790723" d="M450,-190.67C450,-178.421 450,-165.753 450,-153.459"/>
<ellipse fill="none" stroke="#790723" cx="450" cy="-194.797" rx="4" ry="4"/>
<polygon fill="#790723" stroke="#790723" points="450,-153.236 454.5,-143.236 450,-148.236 450,-143.236 450,-143.236 450,-143.236 450,-148.236 445.5,-143.236 450,-153.236 450,-153.236"/>
</g>
<!-- Product -->
<g id="node5" class="node"><title>Product</title>
<polyline fill="none" stroke="black" points="561.5,-181 702.5,-181 "/>
<path fill="none" stroke="black" d="M702.5,-181C708.5,-181 714.5,-187 714.5,-193"/>
<polyline fill="none" stroke="black" points="714.5,-193 714.5,-347 "/>
<path fill="none" stroke="black" d="M714.5,-347C714.5,-353 708.5,-359 702.5,-359"/>
<polyline fill="none" stroke="black" points="702.5,-359 561.5,-359 "/>
<path fill="none" stroke="black" d="M561.5,-359C555.5,-359 549.5,-353 549.5,-347"/>
<polyline fill="none" stroke="black" points="549.5,-347 549.5,-193 "/>
<path fill="none" stroke="black" d="M549.5,-193C549.5,-187 555.5,-181 561.5,-181"/>
<text text-anchor="middle" x="632" y="-342.4" font-family="Times Roman,serif" font-size="14.00">Product</text>
<polyline fill="none" stroke="black" points="549.5,-333 714.5,-333 "/>
<text text-anchor="start" x="557.5" y="-316.4" font-family="Times Roman,serif" font-size="14.00">id :integer</text>
<text text-anchor="start" x="557.5" y="-298.4" font-family="Times Roman,serif" font-size="14.00">title :string</text>
<text text-anchor="start" x="557.5" y="-280.4" font-family="Times Roman,serif" font-size="14.00">number :string</text>
<text text-anchor="start" x="557.5" y="-262.4" font-family="Times Roman,serif" font-size="14.00">price :decimal</text>
<text text-anchor="start" x="557.5" y="-244.4" font-family="Times Roman,serif" font-size="14.00">intro :text</text>
<text text-anchor="start" x="557.5" y="-226.4" font-family="Times Roman,serif" font-size="14.00">published :boolean</text>
<text text-anchor="start" x="557.5" y="-208.4" font-family="Times Roman,serif" font-size="14.00">created_at :datetime</text>
<text text-anchor="start" x="557.5" y="-190.4" font-family="Times Roman,serif" font-size="14.00">updated_at :datetime</text>
</g>
<!-- Product&#45;&gt;LineItem -->
<g id="edge8" class="edge"><title>Product&#45;&gt;LineItem</title>
<path fill="none" stroke="#2c12ec" d="M544.6,-174.916C537.228,-166.897 529.826,-158.843 522.585,-150.966"/>
<ellipse fill="none" stroke="#2c12ec" cx="547.344" cy="-177.902" rx="4.00002" ry="4.00002"/>
<polygon fill="#2c12ec" stroke="#2c12ec" points="522.173,-150.518 518.719,-140.111 518.79,-146.837 515.406,-143.156 515.406,-143.156 515.406,-143.156 518.79,-146.837 512.093,-146.201 522.173,-150.518 522.173,-150.518"/>
</g>
</g>
</svg>
